<?xml version="1.0" encoding="UTF-8" standalone="no"?>
<!-- Uploaded to: SVG Repo, www.svgrepo.com, Generator: SVG Repo Mixer Tools -->

<svg
   fill="#000000"
   height="800px"
   width="800px"
   version="1.1"
   id="Layer_1"
   viewBox="0 0 512 512"
   xml:space="preserve"
   sodipodi:docname="blueprint.svg"
   inkscape:version="1.3.2 (091e20e, 2023-11-25, custom)"
   xmlns:inkscape="http://www.inkscape.org/namespaces/inkscape"
   xmlns:sodipodi="http://sodipodi.sourceforge.net/DTD/sodipodi-0.dtd"
   xmlns="http://www.w3.org/2000/svg"
   xmlns:svg="http://www.w3.org/2000/svg"><defs
   id="defs5" /><sodipodi:namedview
   id="namedview5"
   pagecolor="#ffffff"
   bordercolor="#000000"
   borderopacity="0.25"
   inkscape:showpageshadow="2"
   inkscape:pageopacity="0.0"
   inkscape:pagecheckerboard="0"
   inkscape:deskcolor="#d1d1d1"
   inkscape:zoom="1.02625"
   inkscape:cx="400.48721"
   inkscape:cy="400"
   inkscape:window-width="1920"
   inkscape:window-height="1017"
   inkscape:window-x="-8"
   inkscape:window-y="-8"
   inkscape:window-maximized="1"
   inkscape:current-layer="Layer_1" />
<g
   id="g5"
   transform="matrix(0.90621175,0,0,0.89577913,36.170524,51.625731)">
	<g
   id="g4">
		<g
   id="g3">
			<path
   d="M 490.667,74.667 H 167.979 c -9.472,-36.807 -42.88,-64 -82.645,-64 C 38.202,10.667 0,48.869 0,96 v 320 c 0,0.461 0.012,0.914 0.034,1.36 0.73,46.501 38.624,83.973 85.299,83.973 h 405.333 c 11.782,0 21.333,-9.551 21.333,-21.333 V 96 C 512,84.218 502.449,74.667 490.667,74.667 Z M 42.667,96 c 0,-23.567 19.099,-42.667 42.667,-42.667 23.568,0 42.666,19.1 42.666,42.667 v 246.081 c -12.551,-7.26 -27.123,-11.415 -42.667,-11.415 -15.543,0 -30.116,4.155 -42.667,11.415 V 96 Z m 426.666,362.667 h -384 c -23.567,0 -42.667,-19.099 -42.667,-42.667 0,-23.568 19.099,-42.667 42.667,-42.667 23.568,0 42.667,19.1 42.667,42.667 0,14.222 10.667,21.333 21.333,21.333 v 0 0 c 10.667,0 21.333,-7.111 21.333,-21.333 V 117.333 h 298.667 z"
   id="path1" />
			<path
   d="m 234.667,352 h 170.667 c 11.782,0 21.333,-9.551 21.333,-21.333 V 224 c 0,-6.715 -3.161,-13.038 -8.533,-17.067 l -85.333,-64 c -7.585,-5.689 -18.015,-5.689 -25.6,0 l -85.333,64 c -5.372,4.029 -8.533,10.352 -8.533,17.067 V 330.667 C 213.333,342.449 222.885,352 234.667,352 Z M 256,234.667 l 64,-48 64,48 v 74.667 H 256 Z"
   id="path2" />
			<path
   d="m 403.836,373.333 h -41.173 c -11.782,0 -21.333,9.551 -21.333,21.333 0,11.782 9.551,21.333 21.333,21.333 h 41.173 c 11.782,0 21.333,-9.551 21.333,-21.333 0,-11.781 -9.551,-21.333 -21.333,-21.333 z"
   id="path3" />
		</g>
	</g>
</g>
</svg>
