<?xml version="1.0" encoding="UTF-8" standalone="no"?>
<!-- Uploaded to: SVG Repo, www.svgrepo.com, Generator: SVG Repo Mixer Tools -->

<svg
   width="800px"
   height="800px"
   viewBox="0 0 64 64"
   aria-hidden="true"
   role="img"
   class="iconify iconify--emojione-monotone"
   preserveAspectRatio="xMidYMid meet"
   version="1.1"
   id="svg4"
   sodipodi:docname="building.svg"
   inkscape:version="1.3.2 (091e20e, 2023-11-25, custom)"
   xmlns:inkscape="http://www.inkscape.org/namespaces/inkscape"
   xmlns:sodipodi="http://sodipodi.sourceforge.net/DTD/sodipodi-0.dtd"
   xmlns="http://www.w3.org/2000/svg"
   xmlns:svg="http://www.w3.org/2000/svg">
  <defs
     id="defs4" />
  <sodipodi:namedview
     id="namedview4"
     pagecolor="#ffffff"
     bordercolor="#000000"
     borderopacity="0.25"
     inkscape:showpageshadow="2"
     inkscape:pageopacity="0.0"
     inkscape:pagecheckerboard="0"
     inkscape:deskcolor="#d1d1d1"
     inkscape:zoom="1.02625"
     inkscape:cx="400.48721"
     inkscape:cy="400"
     inkscape:window-width="1920"
     inkscape:window-height="1017"
     inkscape:window-x="-8"
     inkscape:window-y="-8"
     inkscape:window-maximized="1"
     inkscape:current-layer="svg4" />
  <path
     d="M 61.454324,28.309156 V 25.676088 L 32.768067,7.6906212 4.1047504,25.675153 v 2.633068 l 1.5627758,-0.980855 0.8984767,1.190304 -2.4612525,1.546554 v 1.753197 h 2.5013972 v 1.722341 H 4.1047504 v 2.202016 h 5.4960009 v 1.117371 H 10.317621 V 55.143828 H 9.6007513 v 1.636318 h -0.477913 v 1.753197 H 7.4501422 V 60.28654 H 5.7774463 v 1.753198 H 4.1047504 v 1.753197 H 61.454324 V 62.039738 H 59.781628 V 60.28654 h -1.672696 v -1.753197 h -1.672696 v -1.753197 h -0.477913 v -1.636318 h -0.71687 V 36.859149 h 0.71687 v -1.117371 h 5.496001 v -2.202016 h -2.501397 v -1.722341 h 2.501397 v -1.753197 l -2.462209,-1.543749 0.899433,-1.190304 1.562776,0.978985 M 11.566886,54.46125 H 10.890161 V 37.592219 h 0.676725 V 54.46125 m 1.303746,0 H 12.194863 V 37.592219 h 0.675769 V 54.46125 m 1.303747,0 H 13.49861 V 37.592219 h 0.675769 V 54.46125 m 1.304703,0 H 14.802357 V 37.592219 h 0.676725 V 54.46125 m 7.90086,0.739616 h -0.71687 v 1.57928 h -5.893624 v -1.636318 h -0.71687 V 36.859149 h 0.71687 v -1.117371 h 5.893624 v 1.117371 h 0.71687 V 55.200866 M 24.629207,54.46125 H 23.953438 V 37.592219 h 0.675769 V 54.46125 m 1.304703,0 H 25.257185 V 37.592219 H 25.93391 V 54.46125 m 1.303747,0 H 26.560932 V 37.592219 h 0.676725 V 54.46125 m 1.303747,0 h -0.67577 V 37.592219 h 0.67577 V 54.46125 m 7.901815,0.739616 h -0.71687 v 1.57928 h -5.89458 v -1.57928 h -0.71687 V 36.859149 h 0.71687 v -1.117371 h 5.89458 v 1.117371 h 0.71687 V 55.200866 M 37.692484,54.46125 H 37.016715 V 37.592219 h 0.675769 V 54.46125 m 1.304703,0 H 38.320462 V 37.592219 h 0.676725 V 54.46125 m 1.303747,0 H 39.624209 V 37.592219 h 0.676725 V 54.46125 m 1.303747,0 h -0.67577 V 37.592219 h 0.67577 V 54.46125 m 7.901815,0.682578 h -0.71687 v 1.636318 h -5.89458 v -1.57928 h -0.71687 V 36.859149 h 0.71687 v -1.117371 h 5.89458 v 1.117371 h 0.71687 V 55.143828 M 50.755761,54.46125 H 50.079036 V 37.592219 h 0.676725 V 54.46125 m 1.303747,0 H 51.383739 V 37.592219 h 0.675769 V 54.46125 m 1.303747,0 H 52.687486 V 37.592219 h 0.675769 V 54.46125 m 1.304703,0 H 53.991233 V 37.592219 h 0.676725 V 54.46125 M 57.041274,33.539762 H 8.5178001 V 31.817421 H 57.041274 v 1.722341 M 8.9622593,30.064224 32.768067,14.686579 56.596815,30.063289 H 8.9622593 Z M 57.379637,27.508763 32.768067,12.076887 8.1784817,27.506893 7.2800051,26.316589 32.768067,10.32182 58.278113,26.317524 57.379637,27.508763"
     fill="#000000"
     id="path1"
     style="fill:#f2f2f2;fill-opacity:1;stroke-width:0.945375" />
</svg>
