<?xml version="1.0" encoding="UTF-8" standalone="no"?>
<!-- Uploaded to: SVG Repo, www.svgrepo.com, Generator: SVG Repo Mixer Tools -->

<svg
   width="800px"
   height="800px"
   viewBox="0 0 64 64"
   aria-hidden="true"
   role="img"
   class="iconify iconify--emojione-monotone"
   preserveAspectRatio="xMidYMid meet"
   version="1.1"
   id="svg4"
   sodipodi:docname="building.svg"
   inkscape:version="1.3.2 (091e20e, 2023-11-25, custom)"
   xmlns:inkscape="http://www.inkscape.org/namespaces/inkscape"
   xmlns:sodipodi="http://sodipodi.sourceforge.net/DTD/sodipodi-0.dtd"
   xmlns="http://www.w3.org/2000/svg"
   xmlns:svg="http://www.w3.org/2000/svg">
  <defs
     id="defs4" />
  <sodipodi:namedview
     id="namedview4"
     pagecolor="#ffffff"
     bordercolor="#000000"
     borderopacity="0.25"
     inkscape:showpageshadow="2"
     inkscape:pageopacity="0.0"
     inkscape:pagecheckerboard="0"
     inkscape:deskcolor="#d1d1d1"
     inkscape:zoom="1.02625"
     inkscape:cx="400.48721"
     inkscape:cy="400"
     inkscape:window-width="1920"
     inkscape:window-height="1017"
     inkscape:window-x="-8"
     inkscape:window-y="-8"
     inkscape:window-maximized="1"
     inkscape:current-layer="svg4" />
  <path
     d="M 62.62363,24.021702 V 21.388634 L 33.937373,3.4031669 5.2740561,21.387699 v 2.633068 l 1.5627758,-0.980855 0.8984767,1.190304 -2.4612525,1.546554 v 1.753197 h 2.5013972 v 1.722341 H 5.2740561 v 2.202016 h 5.4960009 v 1.117371 h 0.71687 v 18.284679 h -0.71687 v 1.636318 h -0.477913 v 1.753197 H 8.6194479 v 1.753197 H 6.946752 v 1.753198 H 5.2740561 v 1.753197 H 62.62363 v -1.753197 h -1.672696 v -1.753198 h -1.672696 v -1.753197 h -1.672696 v -1.753197 h -0.477913 v -1.636318 h -0.71687 V 32.571695 h 0.71687 V 31.454324 H 62.62363 V 29.252308 H 60.122233 V 27.529967 H 62.62363 V 25.77677 l -2.462209,-1.543749 0.899433,-1.190304 1.562776,0.978985 M 12.736192,50.173796 H 12.059467 V 33.304765 h 0.676725 v 16.869031 m 1.303746,0 H 13.364169 V 33.304765 h 0.675769 v 16.869031 m 1.303747,0 H 14.667916 V 33.304765 h 0.675769 v 16.869031 m 1.304703,0 H 15.971663 V 33.304765 h 0.676725 v 16.869031 m 7.90086,0.739616 h -0.71687 v 1.57928 h -5.893624 v -1.636318 h -0.71687 V 32.571695 h 0.71687 v -1.117371 h 5.893624 v 1.117371 h 0.71687 v 18.341717 m 1.249265,-0.739616 H 25.122744 V 33.304765 h 0.675769 v 16.869031 m 1.304703,0 H 26.426491 V 33.304765 h 0.676725 v 16.869031 m 1.303747,0 H 27.730238 V 33.304765 h 0.676725 v 16.869031 m 1.303747,0 H 29.03494 V 33.304765 h 0.67577 v 16.869031 m 7.901815,0.739616 h -0.71687 v 1.57928 h -5.89458 v -1.57928 h -0.71687 V 32.571695 h 0.71687 v -1.117371 h 5.89458 v 1.117371 h 0.71687 V 50.913412 M 38.86179,50.173796 H 38.186021 V 33.304765 h 0.675769 v 16.869031 m 1.304703,0 H 39.489768 V 33.304765 h 0.676725 v 16.869031 m 1.303747,0 H 40.793515 V 33.304765 h 0.676725 v 16.869031 m 1.303747,0 h -0.67577 V 33.304765 h 0.67577 v 16.869031 m 7.901815,0.682578 h -0.71687 v 1.636318 h -5.89458 v -1.57928 h -0.71687 V 32.571695 h 0.71687 v -1.117371 h 5.89458 v 1.117371 h 0.71687 v 18.284679 m 1.249265,-0.682578 H 51.248342 V 33.304765 h 0.676725 v 16.869031 m 1.303747,0 H 52.553045 V 33.304765 h 0.675769 v 16.869031 m 1.303747,0 H 53.856792 V 33.304765 h 0.675769 v 16.869031 m 1.304703,0 H 55.160539 V 33.304765 h 0.676725 V 50.173796 M 58.21058,29.252308 H 9.6871058 V 27.529967 H 58.21058 v 1.722341 M 10.131565,25.77677 33.937373,10.399125 57.766121,25.775835 H 10.131565 Z M 58.548943,23.221309 33.937373,7.7894328 9.3477874,23.219439 8.4493108,22.029135 33.937373,6.0343654 59.447419,22.03007 58.548943,23.221309"
     fill="#000000"
     id="path1"
     style="fill:#ffffff;fill-opacity:1;stroke-width:0.945375" />
</svg>
