<?xml version="1.0" encoding="UTF-8" standalone="no"?>
<!-- Uploaded to: SVG Repo, www.svgrepo.com, Generator: SVG Repo Mixer Tools -->

<svg
   fill="#000000"
   height="800px"
   width="800px"
   version="1.1"
   id="Layer_1"
   viewBox="0 0 512 512"
   xml:space="preserve"
   sodipodi:docname="column.svg"
   inkscape:version="1.3.2 (091e20e, 2023-11-25, custom)"
   xmlns:inkscape="http://www.inkscape.org/namespaces/inkscape"
   xmlns:sodipodi="http://sodipodi.sourceforge.net/DTD/sodipodi-0.dtd"
   xmlns:xlink="http://www.w3.org/1999/xlink"
   xmlns="http://www.w3.org/2000/svg"
   xmlns:svg="http://www.w3.org/2000/svg"><defs
   id="defs2"><linearGradient
     id="linearGradient2"
     inkscape:collect="always"><stop
       style="stop-color:#4a4a4a;stop-opacity:1;"
       offset="0"
       id="stop3" /><stop
       style="stop-color:#000000;stop-opacity:1;"
       offset="1"
       id="stop2" /></linearGradient><linearGradient
     inkscape:collect="always"
     xlink:href="#linearGradient2"
     id="linearGradient3"
     x1="0"
     y1="311.81536"
     x2="512"
     y2="311.81536"
     gradientUnits="userSpaceOnUse" /></defs><sodipodi:namedview
   id="namedview2"
   pagecolor="#ffffff"
   bordercolor="#000000"
   borderopacity="0.25"
   inkscape:showpageshadow="2"
   inkscape:pageopacity="0.0"
   inkscape:pagecheckerboard="0"
   inkscape:deskcolor="#d1d1d1"
   inkscape:zoom="1.02625"
   inkscape:cx="400.48721"
   inkscape:cy="477.95371"
   inkscape:window-width="1920"
   inkscape:window-height="1017"
   inkscape:window-x="-8"
   inkscape:window-y="-8"
   inkscape:window-maximized="1"
   inkscape:current-layer="Layer_1" />
<g
   id="g2"
   transform="translate(5.6126675,1.8708898)">
	<g
   id="g1">
		<path
   d="M 500.771,113.06772 H 11.229 c -6.203,0 -11.229,5.027 -11.229,11.229 v 83.307 c 0,6.201 5.026,11.229 11.229,11.229 h 51.629 c -2.683,2.187 -5.274,4.523 -7.76,7.007 -15.627,15.626 -24.233,36.399 -24.233,58.497 0,22.098 8.606,42.871 24.231,58.495 4.168,4.168 8.785,7.722 13.733,10.639 l 0,145.86328 c 0,6.201 5.026,11.229 11.229,11.229 h 351.875 c 6.203,0 11.229,-5.027 11.229,-11.229 l 0,-145.87628 c 4.908,-2.881 9.532,-6.421 13.741,-10.628 32.255,-32.255 32.255,-84.736 0,-116.992 -2.485,-2.485 -5.077,-4.821 -7.76,-7.008 h 51.628 c 6.203,0 11.229,-5.027 11.229,-11.229 v -83.304 c 0,-6.203 -5.026,-11.229 -11.229,-11.229 z M 143.578,488.103 h -13.934 l 0,-37.74328 c 0,-3.842 3.126,-6.968 6.966,-6.968 3.842,0 6.968,3.126 6.968,6.968 z m 79.59,0 h -13.934 l 0,-37.74328 c 0,-3.842 3.126,-6.968 6.968,-6.968 3.84,0 6.966,3.126 6.966,6.968 z m 79.59,0 h -13.932 l 0,-37.74328 c 0,-3.842 3.126,-6.968 6.966,-6.968 3.84,0 6.966,3.126 6.966,6.968 z m 79.592,0 h -13.934 l 0,-37.74328 c 0,-3.842 3.126,-6.968 6.966,-6.968 3.842,0 6.968,3.126 6.968,6.968 z m 38.357,0.002 h -15.898 l 0,-37.74528 c 0,-16.225 -13.2,-29.425 -29.425,-29.425 -16.225,0 -29.423,13.2 -29.423,29.425 l 0,37.74428 h -20.742 l 0,-37.74428 c 0,-16.225 -13.199,-29.425 -29.424,-29.425 -16.225,0 -29.423,13.2 -29.423,29.425 l 0,37.74428 H 245.63 l 0,-37.74428 c 0,-16.225 -13.199,-29.425 -29.423,-29.425 -16.225,0 -29.425,13.2 -29.425,29.425 l 0,37.74428 H 166.04 l 0,-37.74428 c 0,-16.225 -13.2,-29.425 -29.425,-29.425 -16.225,0 -29.424,13.2 -29.424,29.425 l 0,37.74428 H 91.289 l 0,-95.07628 h 329.418 z m 0,-117.53528 H 91.289 v -8.794 c 3.985,0.713 8.059,1.096 12.194,1.096 18.277,0 35.461,-7.117 48.385,-20.041 6.052,-6.053 10.443,-13.143 13.197,-20.701 h 181.869 c 2.755,7.558 7.146,14.648 13.199,20.701 16.446,16.446 39.249,22.739 60.573,18.909 v 8.83 z m 20.316,-43.619 c -17.924,17.924 -47.088,17.921 -65.009,0 -13.464,-13.462 -13.464,-35.369 -0.002,-48.831 9.896,-9.896 25.998,-9.893 35.893,0 4.384,4.385 11.494,4.384 15.879,0 4.385,-4.385 4.385,-11.495 -10e-4,-15.88 -18.65,-18.651 -48.997,-18.648 -67.65,0 -10.383,10.383 -15.91,23.809 -16.59,37.433 H 168.456 c -0.678,-13.624 -6.207,-27.051 -16.59,-37.433 -18.653,-18.65 -48.997,-18.65 -67.65,0 -4.385,4.385 -4.385,11.495 0,15.88 4.385,4.384 11.495,4.385 15.879,0 9.896,-9.895 25.995,-9.895 35.89,0 13.464,13.462 13.464,35.369 0,48.833 -8.682,8.682 -20.227,13.464 -32.505,13.464 -12.278,0 -23.821,-4.782 -32.505,-13.464 -11.384,-11.383 -17.653,-26.518 -17.653,-42.616 0,-16.097 6.27,-31.232 17.654,-42.616 15.224,-15.226 35.506,-23.336 57.005,-22.867 0.084,10e-4 0.166,0.003 0.25,0.003 h 255.534 c 0.084,0 0.166,-0.002 0.25,-0.003 21.541,-0.478 41.779,7.641 57.005,22.867 23.502,23.496 23.502,61.732 0.003,85.23 z m 48.52,-130.577 H 22.457 v -60.849 h 467.085 v 60.849 z"
   id="path1"
   sodipodi:nodetypes="sssssccsccssssccscssssccssscccssscccssscccssscccsssccsssccsssccsssccccccccscccscccccscccccccccccsscsccssccccccccc"
   style="stroke-width:0.99968;stroke-dasharray:none;fill:url(#linearGradient3)" />
	</g>
</g>
</svg>
