<?xml version="1.0" encoding="UTF-8" standalone="no"?>
<!-- Uploaded to: SVG Repo, www.svgrepo.com, Generator: SVG Repo Mixer Tools -->

<svg
   fill="#555"
   width="800px"
   height="800px"
   viewBox="0 0 100 100"
   version="1.1"
   xml:space="preserve"
   id="svg4"
   sodipodi:docname="crane.svg"
   inkscape:version="1.3.2 (091e20e, 2023-11-25, custom)"
   xmlns:inkscape="http://www.inkscape.org/namespaces/inkscape"
   xmlns:sodipodi="http://sodipodi.sourceforge.net/DTD/sodipodi-0.dtd"
   xmlns="http://www.w3.org/2000/svg"
   xmlns:svg="http://www.w3.org/2000/svg"><defs
   id="defs4" /><sodipodi:namedview
   id="namedview4"
   pagecolor="#ffffff"
   bordercolor="#000000"
   borderopacity="0.25"
   inkscape:showpageshadow="2"
   inkscape:pageopacity="0.0"
   inkscape:pagecheckerboard="0"
   inkscape:deskcolor="#d1d1d1"
   inkscape:zoom="1.02625"
   inkscape:cx="400.48721"
   inkscape:cy="434.10475"
   inkscape:window-width="1920"
   inkscape:window-height="1017"
   inkscape:window-x="-8"
   inkscape:window-y="-8"
   inkscape:window-maximized="1"
   inkscape:current-layer="svg4" />

<g
   id="jackhammer" />

<g
   id="drilling_machine" />

<g
   id="hammer" />

<g
   id="measuring_tape" />

<g
   id="wrench" />

<g
   id="saw" />

<g
   id="building" />

<g
   id="wall" />

<path
   d="m 27.168632,15.327649 c -0.393644,0 -0.78729,0.267388 -0.984112,0.623964 l -0.0985,0.178242 -10.333183,12.034396 -7.8729024,8.914366 -0.098267,0.08924 c 0,0 -9.67e-5,0.08924 -0.098501,0.08924 v 0.356489 25.851665 H 5.7149357 c -0.5904665,0 -0.9841133,0.356575 -0.9841133,0.891437 v 12.480114 c 0,0.534861 0.3936468,0.891437 0.9841133,0.891437 h 5.9046763 c 0.590465,0 0.984112,-0.356576 0.984112,-0.891437 V 64.35667 c 0,-0.534861 -0.393647,-0.891438 -0.984112,-0.891438 H 9.6513772 V 40.198646 l 6.1014528,6.953251 c 0.0984,0.08915 0.196773,0.0891 0.196773,0.178244 0,0 0.0985,8.7e-5 0.0985,0.08924 h 0.492056 1.968226 v 39.223213 h -6.888789 c -0.590466,0 -0.984112,0.356576 -0.984112,0.891437 v 8.914372 c 0,0.534855 0.393646,0.891429 0.984112,0.891429 h 31.491606 c 0.590466,0 0.984114,-0.356574 0.984114,-0.891429 v -8.914372 c 0,-0.534861 -0.393648,-0.891437 -0.984114,-0.891437 H 36.222417 V 47.419369 h 1.968227 c 0.590466,0 0.984114,-0.356575 0.984114,-0.891437 v -4.457184 h 35.428056 v 4.457184 c 0,0.534862 0.393647,0.891437 0.984113,0.891437 h 2.952338 v 4.902902 l -12.399916,8.646892 c -0.295233,0.26743 -0.491865,0.624094 -0.295042,0.980668 0.0984,0.356574 0.491961,0.623962 0.885605,0.623962 h 25.586931 c 0.393644,0 0.787195,-0.267388 0.885605,-0.623962 0.09842,-0.356574 1.92e-4,-0.802381 -0.295042,-0.980668 L 80.507489,52.322271 v -4.902902 h 2.95234 c 0.590466,0 0.984112,-0.356575 0.984112,-0.891437 v -4.457184 h 0.984113 c 0.590466,0 0.984113,-0.356574 0.984113,-0.891436 v -4.457184 -0.08924 c 0,-0.08915 -9.6e-5,-0.178242 -0.0985,-0.178242 0,0 1.45e-4,-0.089 -0.09826,-0.089 0,-0.08915 -0.0985,-0.08931 -0.0985,-0.178461 l -0.09826,-0.089 c -0.09842,0 -0.09861,-0.08924 -0.197014,-0.08924 L 27.75896,15.505899 H 27.6607 27.463927 c -0.09841,-0.178294 -0.09863,-0.17825 -0.197025,-0.17825 z m 1.574435,2.317822 48.910596,17.293786 -38.478903,-4.367953 v -1.872105 c 0,-0.534861 -0.393647,-0.891436 -0.984113,-0.891436 h -6.199959 z m -1.574435,1.5154 2.853831,8.646892 h -6.199958 z m -2.854071,2.139361 -2.558549,6.507531 h -3.149111 z m -6.790281,8.290405 h 3.936451 v 11.588678 c 0,0.534861 0.393646,0.891435 0.984112,0.891435 h 14.761692 v 3.565748 H 35.238308 19.492506 17.52428 Z m 5.904676,0 h 13.777579 v 1.782874 8.914367 H 23.428956 Z m -7.872902,1.693642 V 44.031868 L 9.9466602,37.613567 Z m 23.618706,1.069899 45.269185,5.081145 v 2.852555 h -0.984114 -7.8729 -36.412171 z m 37.396282,9.716572 h 5.904677 v 3.565748 h -5.904677 z m -54.618255,5.348622 h 10.825239 l -5.41262,4.724657 z m -1.476169,1.158911 5.511127,4.81367 -5.511127,4.724659 z m 13.777578,0.089 v 9.449319 l -5.511129,-4.724658 z m 45.269184,5.25961 9.939635,6.864021 H 69.583746 Z m -52.157974,0.623963 6.495241,5.616095 -6.495241,5.616096 -6.495239,-5.616096 z m -6.888788,7.755454 5.511127,4.72466 -5.511127,4.724658 z m 13.777578,0 v 9.449316 L 28.743067,67.030971 Z M 6.6990404,65.248097 H 10.635491 V 75.945338 H 6.6990404 Z m 20.6663656,3.030797 6.495241,5.616096 -6.495241,5.526863 -6.495239,-5.615875 z m -6.888788,7.666444 5.511127,4.724659 -5.511127,4.81367 z m 13.777578,0 v 9.449317 l -5.511129,-4.724658 z m -6.88879,5.972581 5.41262,4.724661 H 21.952787 Z m -14.76169,6.507532 h 6.88879 15.745802 6.888789 v 7.131497 H 12.603716 Z"
   style="fill:#f9f9f9;stroke-width:0.936629"
   id="path11" /><path
   d="m 66.729916,67.03098 c -0.590466,0 -0.984113,0.356575 -0.984113,0.891435 v 24.068793 h -0.984112 c -0.590468,0 -0.984114,0.356575 -0.984114,0.891437 v 3.565743 c 0,0.534866 0.393646,0.89144 0.984114,0.89144 h 29.523381 c 0.590465,0 0.984112,-0.356574 0.984112,-0.89144 v -3.565743 c 0,-0.534862 -0.393647,-0.891437 -0.984112,-0.891437 H 93.300959 V 67.922415 c 0,-0.53486 -0.393646,-0.891435 -0.984113,-0.891435 z m 0.984112,1.782873 h 23.618706 v 23.177355 h -5.904678 v -9.805805 c 0,-0.534861 -0.393645,-0.891437 -0.984111,-0.891437 h -9.841128 c -0.590467,0 -0.984112,0.356576 -0.984112,0.891437 v 9.805805 h -5.904677 z m 7.872903,14.262987 h 7.8729 v 8.914368 h -7.8729 z m -9.841128,10.697243 h 0.984113 7.872901 9.841128 7.872901 0.984113 v 1.782876 H 65.745803 Z"
   style="opacity:1;fill:#f9f9f9;fill-opacity:1;stroke-width:0.936629"
   id="path10" /><path
   d="m 81.491607,71.488163 c -0.590469,0 -0.984114,0.356576 -0.984114,0.891436 v 5.348621 c 0,0.534862 0.393645,0.891437 0.984114,0.891437 h 5.904675 c 0.590466,0 0.984112,-0.356575 0.984112,-0.891437 v -5.348621 c 0,-0.53486 -0.393646,-0.891436 -0.984112,-0.891436 z m 0.984112,1.782873 h 3.936451 v 3.565747 h -3.936451 z"
   style="fill:#f9f9f9;fill-opacity:1;stroke-width:0.936629"
   id="path8" /><path
   d="m 71.375532,71.419758 c -0.590467,0 -0.984113,0.356576 -0.984113,0.891437 v 5.34862 c 0,0.534862 0.393646,0.891436 0.984113,0.891436 h 5.904677 c 0.590465,0 0.984113,-0.356574 0.984113,-0.891436 v -5.34862 c 0,-0.534861 -0.393648,-0.891437 -0.984113,-0.891437 z m 0.984114,1.782873 h 3.93645 v 3.565747 h -3.93645 z"
   style="fill:#f9f9f9;fill-opacity:1;stroke-width:0.936629"
   id="path8-0" />

<g
   id="barrier_sign" />

<g
   id="concept" />

<g
   id="shovel" />

<g
   id="architecture" />

<g
   id="safety_helmet" />

<g
   id="worker" />

<g
   id="teamwork" />

<g
   id="roller_brush" />

<g
   id="designs" />

<g
   id="trolley" />

<g
   id="pick_axe" />

</svg>
