<?xml version="1.0" encoding="UTF-8" standalone="no"?>
<svg
   width="800px"
   height="800px"
   viewBox="0 0 24 24"
   version="1.1"
   id="svg1"
   sodipodi:docname="factory.svg"
   inkscape:version="1.3.2 (091e20e, 2023-11-25, custom)"
   xmlns:inkscape="http://www.inkscape.org/namespaces/inkscape"
   xmlns:sodipodi="http://sodipodi.sourceforge.net/DTD/sodipodi-0.dtd"
   xmlns:xlink="http://www.w3.org/1999/xlink"
   xmlns="http://www.w3.org/2000/svg"
   xmlns:svg="http://www.w3.org/2000/svg">
  <defs
     id="defs1">
    <linearGradient
       id="linearGradient1"
       inkscape:collect="always">
      <stop
         style="stop-color:#454545;stop-opacity:1;"
         offset="0.30277777"
         id="stop2" />
      <stop
         style="stop-color:#000000;stop-opacity:1;"
         offset="0.76666665"
         id="stop1" />
    </linearGradient>
    <linearGradient
       inkscape:collect="always"
       xlink:href="#linearGradient1"
       id="linearGradient2"
       x1="2.5"
       y1="12"
       x2="21.5"
       y2="12"
       gradientUnits="userSpaceOnUse" />
  </defs>
  <sodipodi:namedview
     id="namedview1"
     pagecolor="#ffffff"
     bordercolor="#000000"
     borderopacity="0.25"
     inkscape:showpageshadow="2"
     inkscape:pageopacity="0.0"
     inkscape:pagecheckerboard="0"
     inkscape:deskcolor="#d1d1d1"
     inkscape:zoom="1.02625"
     inkscape:cx="480.38977"
     inkscape:cy="400"
     inkscape:window-width="1920"
     inkscape:window-height="1017"
     inkscape:window-x="-8"
     inkscape:window-y="-8"
     inkscape:window-maximized="1"
     inkscape:current-layer="svg1" />
  <path
     fill="#444"
     d="M 21,3 V 5 H 19 V 3 Z M 3,21 V 10.618 L 7.1461632,6.5424823 7,10 c -3.465e-4,0.743481 0.7819307,1.227336 1.447,0.895 L 13,6.6009476 V 10 c 0,0.552285 0.447715,1 1,1 h 4 c 0.552285,0 1,-0.447715 1,-1 V 7 h 2 v 14 z m 2,-8 h 3 v 2 H 5 Z m 5,0 h 4 v 2 h -4 z m 6,0 h 3 v 2 H 16 Z M 5,17 h 3 v 2 H 5 Z m 5,0 h 4 v 2 h -4 z m 6,0 h 3 v 2 h -3 z"
     id="path1"
     style="fill:#000000;fill-opacity:0;stroke:url(#linearGradient2);stroke-opacity:1"
     sodipodi:nodetypes="cccccccccccsssscccccccccccccccccccccccccccccccccc" />
</svg>
