<?xml version="1.0" encoding="UTF-8" standalone="no"?>
<!-- Uploaded to: SVG Repo, www.svgrepo.com, Generator: SVG Repo Mixer Tools -->

<svg
   width="800px"
   height="800px"
   viewBox="0 0 64 64"
   version="1.1"
   id="svg13"
   sodipodi:docname="trees.svg"
   inkscape:version="1.3.2 (091e20e, 2023-11-25, custom)"
   xmlns:inkscape="http://www.inkscape.org/namespaces/inkscape"
   xmlns:sodipodi="http://sodipodi.sourceforge.net/DTD/sodipodi-0.dtd"
   xmlns="http://www.w3.org/2000/svg"
   xmlns:svg="http://www.w3.org/2000/svg">
  <sodipodi:namedview
     id="namedview13"
     pagecolor="#ffffff"
     bordercolor="#000000"
     borderopacity="0.25"
     inkscape:showpageshadow="2"
     inkscape:pageopacity="0.0"
     inkscape:pagecheckerboard="0"
     inkscape:deskcolor="#d1d1d1"
     inkscape:zoom="1.02625"
     inkscape:cx="400.48721"
     inkscape:cy="10.231425"
     inkscape:window-width="1920"
     inkscape:window-height="1017"
     inkscape:window-x="-8"
     inkscape:window-y="-8"
     inkscape:window-maximized="1"
     inkscape:current-layer="Layer_25" />
  <defs
     id="defs1">
    <style
       id="style1">.cls-1{fill:none;stroke:#000000;stroke-linejoin:round;stroke-width:2px;}</style>
  </defs>
  <title
     id="title1" />
  <g
     data-name="Layer 25"
     id="Layer_25">
    <rect
       class="cls-1"
       height="4"
       width="60"
       x="2"
       y="58"
       id="rect1" />
    <path
       class="cls-1"
       d="M24.5,21.44a5.07,5.07,0,0,0-2.59-1.35,5,5,0,0,0-9.82,0A5,5,0,0,0,9,28a5,5,0,0,0,.71,8.43A5,5,0,0,0,17,43a5,5,0,0,0,7.5-1.8"
       id="path1" />
    <line
       class="cls-1"
       x1="18"
       x2="18"
       y1="50"
       y2="23"
       id="line1" />
    <line
       class="cls-1"
       x1="18"
       x2="12"
       y1="30"
       y2="24"
       id="line2" />
    <line
       class="cls-1"
       x1="18"
       x2="22.09"
       y1="37"
       y2="32.91"
       id="line3" />
    <path
       class="cls-1"
       d="M42,32a5,5,0,0,0-2-4,5,5,0,0,0-3.07-7.91,5,5,0,0,0-9.82,0A5,5,0,0,0,24,28a5,5,0,0,0,.71,8.43A5,5,0,0,0,32,43a5,5,0,0,0,7.27-6.55A5,5,0,0,0,42,32Z"
       id="path3" />
    <line
       class="cls-1"
       x1="32"
       x2="32"
       y1="52"
       y2="23"
       id="line4" />
    <line
       class="cls-1"
       x1="32"
       x2="37"
       y1="30"
       y2="25"
       id="line5" />
    <line
       class="cls-1"
       x1="32"
       x2="27"
       y1="37"
       y2="32"
       id="line6" />
    <path
       class="cls-1"
       d="M39.5,41.18A5,5,0,0,0,47,43a5,5,0,0,0,7.27-6.55A5,5,0,0,0,55,28a5,5,0,0,0-3.07-7.91,5,5,0,0,0-9.82,0,5.07,5.07,0,0,0-2.59,1.35"
       id="path6" />
    <line
       class="cls-1"
       x1="47"
       x2="47"
       y1="50"
       y2="23"
       id="line7" />
    <line
       class="cls-1"
       x1="47"
       x2="52"
       y1="30"
       y2="25"
       id="line8" />
    <line
       class="cls-1"
       x1="47"
       x2="42"
       y1="37"
       y2="32"
       id="line9" />
    <path
       class="cls-1"
       d="M60,58a4,4,0,0,0-4-4,4,4,0,0,0-7-2.62,3.94,3.94,0,0,0-5-.83,3.94,3.94,0,0,0-5,.83A4,4,0,0,0,32,54a4,4,0,0,0-7-2.62,3.94,3.94,0,0,0-5-.83,3.94,3.94,0,0,0-5,.83A4,4,0,0,0,8,54a4,4,0,0,0-4,4"
       id="path9" />
    <path
       class="cls-1"
       d="m 16.132765,12.701583 c 1.888913,0.0048 3.312174,-1.716269 2.95284,-3.5706884 -0.359334,-1.8544198 -2.322436,-2.9193108 -4.07284,-2.2093112 -0.84,-2.8799998 -4.92,-2.8799998 -5.7600001,0 -1.750404,-0.7099996 -3.713506,0.5887525 -4.07284,2.2093112 -0.408906,1.8441224 1.063927,3.5754914 2.95284,3.5706884 z"
       id="path10"
       sodipodi:nodetypes="csccscc" />
    <path
       class="cls-1"
       d="m 34.132765,12.701583 a 3,3 0 1 0 -1.12,-5.7799996 3,3 0 0 0 -5.76,0 3,3 0 1 0 -1.12,5.7799996 z"
       id="path11" />
    <path
       class="cls-1"
       d="m 23.132765,10.151583 a 4,4 0 0 1 -4.07,0"
       id="path12" />
    <path
       class="cls-1"
       d="m 17.132765,6.7015834 a 4,4 0 0 1 8,0"
       id="path13" />
  </g>
</svg>
